<?xml version="1.0" standalone="no"?><!DOCTYPE svg PUBLIC "-//W3C//DTD SVG 1.1//EN" "http://www.w3.org/Graphics/SVG/1.1/DTD/svg11.dtd"><svg t="1586916416997" class="icon" viewBox="0 0 1228 1024" version="1.1" xmlns="http://www.w3.org/2000/svg" p-id="20865" xmlns:xlink="http://www.w3.org/1999/xlink" width="25" height="20"><defs><style type="text/css"></style></defs><path d="M397.867995 71.412204c81.613948 0 132.622665 20.403487 153.026152 61.210461 10.201743 10.201743 20.403487 30.60523 30.60523 30.60523l10.201744 10.201744v-10.201744 571.297634s0-10.201743 10.201743-20.403487h10.201744l-20.403487 30.605231 30.60523-20.403487c-10.201743-10.201743-30.60523-30.60523-61.210461-40.806974-40.806974-30.60523-102.017435-40.806974-173.429638-40.806974-81.613948 0-132.622665 20.403487-163.227896 40.806974-20.403487 20.403487-40.806974 30.60523-40.806974 51.008717l20.403487 20.403487-30.60523-30.60523s10.201743-10.201743 20.403487 0 20.403487 10.201743 20.403487 20.403487V163.227895v20.403487s10.201743-10.201743 10.201743-20.403487c10.201743-20.403487 20.403487-30.60523 30.605231-40.806973 40.806974-40.806974 81.613948-51.008717 142.824408-51.008718z m0-71.412204C326.455791 0 265.24533 30.60523 214.236613 81.613948c-30.60523 20.403487-51.008717 51.008717-61.210461 61.21046v591.701121c0 51.008717 40.806974 71.412204 71.412204 30.605231l20.403487-20.403487c20.403487-20.403487 71.412204-30.60523 132.622665-30.605231 61.210461 0 112.219178 10.201743 142.824409 30.605231 20.403487 10.201743 30.60523 20.403487 30.60523 30.60523 30.60523 30.60523 71.412204 10.201743 71.412204-30.60523V153.026152c0-20.403487-10.201743-51.008717-30.60523-81.613948C550.894147 30.60523 489.683686 0 397.867995 0zM0 336.657534v612.104608c0 51.008717 40.806974 71.412204 71.412204 30.60523l20.403487-20.403487c10.201743-10.201743 30.60523-20.403487 51.008717-40.806973 61.210461-30.60523 122.420922-61.210461 204.03487-61.210461s142.824408 30.60523 183.631382 71.412204c20.403487 20.403487 30.60523 30.60523 30.60523 40.806974 10.201743 10.201743 10.201743 20.403487 10.201744 20.403487 20.403487 30.60523 40.806974 40.806974 51.008717 30.60523 20.403487-10.201743 20.403487-30.60523 20.403487-40.806974-10.201743-30.60523-30.60523-61.210461-71.412204-91.815691-61.210461-51.008717-132.622665-81.613948-224.438356-81.613948-91.815691 0-173.429639 30.60523-234.6401 71.412205-40.806974 30.60523-71.412204 51.008717-81.613948 71.412204l30.605231 30.60523-30.605231-30.60523H51.008717c10.201743 10.201743 10.201743 10.201743 10.201744 20.403487V336.657534c0-20.403487-20.403487-30.60523-30.605231-30.60523-10.201743 0-30.60523 10.201743-30.60523 30.60523zM826.34122 0c-91.815691 0-153.026152 30.60523-204.034869 81.613948-20.403487 20.403487-40.806974 51.008717-40.806974 81.613947v581.499378c0 40.806974 40.806974 71.412204 71.412205 30.60523 0-10.201743 10.201743-20.403487 30.60523-30.60523 30.60523-20.403487 91.815691-30.60523 142.824408-30.605231 51.008717 0 112.219178 10.201743 142.824409 30.605231 20.403487 10.201743 20.403487 20.403487 20.403487 20.403487 30.60523 30.60523 71.412204 20.403487 71.412204-30.605231V142.824408c-10.201743-20.403487-30.60523-40.806974-61.210461-81.613947-40.806974-30.60523-102.017435-61.210461-173.429639-61.210461z m0 71.412204c51.008717 0 102.017435 20.403487 142.824409 61.210461 20.403487 10.201743 30.60523 30.60523 30.60523 40.806974 10.201743 10.201743 10.201743 20.403487 10.201744 20.403487v-20.403487 561.09589s0-10.201743 20.403487-20.403487c10.201743-10.201743 20.403487 0 20.403487 0l-30.605231 20.403487 30.605231-20.403487c-10.201743-20.403487-20.403487-30.60523-40.806974-51.008717-30.60523-30.60523-91.815691-30.60523-163.227896-30.60523-81.613948 0-132.622665 20.403487-173.429639 30.60523-40.806974 20.403487-61.210461 40.806974-61.21046 51.008717l30.60523 20.403487-30.60523-20.403487h20.403487c10.201743 10.201743 10.201743 10.201743 10.201743 20.403487V163.227895v10.201744s0-10.201743 10.201744-20.403487 20.403487-30.60523 30.60523-30.60523c10.201743-40.806974 61.210461-51.008717 142.824408-51.008718z m326.455791 265.24533v612.104608s0-10.201743 10.201744-20.403487 20.403487 0 20.403487 0l-20.403487 30.60523 30.60523-30.60523c-20.403487-20.403487-40.806974-40.806974-81.613948-71.412204-71.412204-40.806974-142.824408-71.412204-234.640099-71.412204-91.815691 0-163.227895 30.60523-224.438356 81.613947-40.806974 51.008717-51.008717 81.613948-61.210461 102.017435-10.201743 20.403487 0 30.60523 20.403487 40.806974 20.403487 10.201743 30.60523 0 40.806974-20.403487 0 0 10.201743-10.201743 10.201743-20.403487 10.201743-20.403487 30.60523-30.60523 30.60523-51.008717 40.806974-40.806974 102.017435-71.412204 183.631383-71.412205s142.824408 30.60523 204.034869 61.210461c20.403487 10.201743 30.60523 30.60523 51.008717 40.806974l20.403487 20.403487c30.60523 30.60523 71.412204 20.403487 71.412204-30.60523V336.657534c0-20.403487-20.403487-30.60523-30.60523-30.60523-20.403487-10.201743-40.806974 10.201743-40.806974 30.60523z" p-id="20866" fill="#d07241"></path></svg>