<?xml version="1.0" standalone="no"?><!DOCTYPE svg PUBLIC "-//W3C//DTD SVG 1.1//EN" "http://www.w3.org/Graphics/SVG/1.1/DTD/svg11.dtd"><svg t="1586919808552" class="icon" viewBox="0 0 1273 1024" version="1.1" xmlns="http://www.w3.org/2000/svg" p-id="61633" xmlns:xlink="http://www.w3.org/1999/xlink" width="35" height="30"><defs><style type="text/css"></style></defs><path d="M1262.998279 426.864321l-230.69872-344.102265a58.592969 58.592969 0 0 0-83.540383-15.907902l-73.599651 47.791981a60.28617 60.28617 0 0 0-15.907903 83.540383l19.895119 29.835851a254.171411 254.171411 0 0 1-121.337012-23.86868c-57.678094-23.868681-119.343404-9.940732-165.100813 7.960778a466.99593 466.99593 0 0 0-129.284136-67.632481 62.102266 62.102266 0 0 0-13.927949-83.540383L377.849824 11.156014a62.921557 62.921557 0 0 0-85.533992 13.927949L11.858832 408.976465a60.7914 60.7914 0 0 0 13.927949 85.533991l69.639744 51.710924a59.589773 59.589773 0 0 0 35.803021 11.93434 60.258861 60.258861 0 0 0 43.695526-19.895119 777.916904 777.916904 0 0 0 65.638872 59.671702l-43.695525 63.645264a87.240848 87.240848 0 0 0 25.862289 121.337013 90.354154 90.354154 0 0 0 75.579604 9.940732 90.28588 90.28588 0 0 0 37.79663 65.638873 83.458454 83.458454 0 0 0 47.791981 13.927948 100.772806 100.772806 0 0 0 25.739396-3.973562 90.28588 90.28588 0 0 0 37.796629 65.638873 83.458454 83.458454 0 0 0 47.791981 13.927949 116.407611 116.407611 0 0 0 25.86229-3.973562 90.122022 90.122022 0 0 0 37.796629 63.645264l3.973562 1.993608a86.175769 86.175769 0 0 0 119.343405-23.868681 131.305054 131.305054 0 0 0 23.86868-43.695525l11.934341 7.960778a74.773968 74.773968 0 0 0 105.415455-19.895119 81.601394 81.601394 0 0 0 13.927949-43.695525 76.46717 76.46717 0 0 0 73.599651-31.82946 79.717025 79.717025 0 0 0 11.934341-61.66531 82.325101 82.325101 0 0 0 53.704531-31.82946 71.606043 71.606043 0 0 0 13.927949-43.695525 76.46717 76.46717 0 0 0 73.599651-31.82946 77.832655 77.832655 0 0 0-3.973562-91.487507 163.448575 163.448575 0 0 0 25.821325-53.950319l1.993608 3.973562a58.592969 58.592969 0 0 0 83.540383 15.907902l75.579605-49.73097a60.28617 60.28617 0 0 0 15.921557-83.485763z m-1143.730383 87.527599l-69.639744-51.710923a20.140906 20.140906 0 0 1-3.973562-29.835851l280.457001-385.886111a20.140906 20.140906 0 0 1 29.835851-3.973562l69.639744 51.710924a19.936084 19.936084 0 0 1 3.973561 29.835851L149.103747 508.42475a22.612435 22.612435 0 0 1-29.835851 5.96717z m123.316966 236.706856a47.791981 47.791981 0 0 1-13.927948-65.638873l93.481115-135.251306a49.799244 49.799244 0 0 1 67.63248-13.927949 48.542998 48.542998 0 0 1 13.927949 65.638872l-93.481115 135.251307a50.20889 50.20889 0 0 1-67.618826 13.927949z m113.33527 75.579604a47.791981 47.791981 0 0 1-13.927949-65.638872l61.665311-89.507554a49.799244 49.799244 0 0 1 67.63248-13.927948 47.791981 47.791981 0 0 1 13.927949 65.638872l-61.66531 89.507553a50.20889 50.20889 0 0 1-67.577862 13.927949z m115.369842 75.579604a47.791981 47.791981 0 0 1-13.927948-65.638872l29.89047-39.708309c35.803021-53.704532 115.369842 0 81.546775 51.710924-19.895119 25.862289-13.927949 19.895119-27.842243 39.776583-17.901511 19.8405-49.73097 27.801278-69.626089 13.873329z m190.963102 41.783847l-13.927949 19.895119a49.785589 49.785589 0 0 1-63.645264 13.927949l-3.973562-1.993609a45.457001 45.457001 0 0 1-13.927948-63.645264c1.993608-1.993608 19.895119-27.842243 17.90151-25.862289 41.811156-41.783846 109.429982 11.93434 77.573213 57.678094z m370.046483-280.457a37.687391 37.687391 0 0 1-49.73097 9.940732l-145.233004-101.441894c-1.993608-1.993608-5.96717-1.993608-9.940732-3.973562a19.963393 19.963393 0 0 0-13.927949 35.803021l121.337013 85.533992a36.41749 36.41749 0 0 1-41.783846 59.671702l-109.402673-77.573213a19.895119 19.895119 0 1 0-23.86868 31.82946l109.402672 77.573212a39.831203 39.831203 0 0 1 9.940732 51.710924 37.810285 37.810285 0 0 1-51.710924 9.940732c-11.93434-7.960779-103.435502-69.639744-97.468331-65.638872l-9.940733-5.96717a19.567403 19.567403 0 0 0-27.842242 5.96717 21.547356 21.547356 0 0 0 0 21.847763c3.973562 5.96717 7.960779 5.96717 17.90151 13.927948 55.69814 41.770192 87.513945 45.743753 87.513945 77.573213a36.608658 36.608658 0 0 1-57.678094 29.835851l-35.803021-25.862289a90.326844 90.326844 0 0 0-93.481115-61.665311 87.199883 87.199883 0 0 0-37.79663-83.499418 76.46717 76.46717 0 0 0-47.791981-13.927949 88.415165 88.415165 0 0 0-31.829459-109.402672 85.438407 85.438407 0 0 0-49.73097-13.927949 88.237652 88.237652 0 0 0-155.146426-81.546774l-25.862289 37.796629a556.517138 556.517138 0 0 1-63.645264-59.671702l238.686809-326.214408a606.999125 606.999125 0 0 1 113.335269 53.704532 170.030214 170.030214 0 0 0-27.842243 17.90151 128.355606 128.355606 0 0 0-71.606042 87.513945c-7.960779 49.73097 35.803021 93.481115 105.415455 87.513945 95.474723-7.960779 93.481115-51.710924 141.218477-69.639744a19.116792 19.116792 0 0 1 17.901511 3.973562c330.297209 268.49535 304.43492 248.668505 306.428528 248.668505a36.39018 36.39018 0 0 1 9.981697 51.724579z m17.90151-179.015107a106.125508 106.125508 0 0 1-19.895119 83.540383L743.840815 329.409644a62.716734 62.716734 0 0 0-55.69814-9.940732c-67.632481 23.868681-43.695526 59.671702-131.277745 67.63248-31.829459 1.993608-67.632481-9.940732-63.645264-41.770191 3.973562-25.862289 21.847763-45.743753 51.710924-61.665311l1.993608-1.993608c1.993608 0 107.409064-77.573213 192.943055-41.770192 3.973562 1.993608 83.540383 37.79663 163.107205 23.868681 15.907902 23.814061-53.649913-79.566821 147.185647 220.785298z m175.041545-7.960778l-75.579605 49.73097a19.567403 19.567403 0 0 1-27.842242-5.967171L893.020071 176.256826a19.567403 19.567403 0 0 1 5.96717-27.842242l75.579604-49.73097a19.567403 19.567403 0 0 1 27.842243 5.96717l230.766995 344.102264a24.578733 24.578733 0 0 1-7.974434 27.855898z" p-id="61634" fill="#2f6bb2"></path></svg>