<?xml version="1.0" standalone="no"?><!DOCTYPE svg PUBLIC "-//W3C//DTD SVG 1.1//EN" "http://www.w3.org/Graphics/SVG/1.1/DTD/svg11.dtd"><svg t="1586918757830" class="icon" viewBox="0 0 1024 1024" version="1.1" xmlns="http://www.w3.org/2000/svg" p-id="47392" xmlns:xlink="http://www.w3.org/1999/xlink" width="30" height="30"><defs><style type="text/css"></style></defs><path d="M353.852 905.18h-98.335c-54.08 0-98.331-44.251-98.331-98.331v-590c0-54.08 44.251-98.331 98.331-98.331h491.664c54.084 0 98.335 44.251 98.335 98.331v221.25c0 14.75-9.837 24.583-24.583 24.583-14.751 0-24.587-9.833-24.587-24.583v-221.25c0-29.497-19.664-49.165-49.165-49.165H255.516c-29.497 0-49.165 19.668-49.165 49.165v590c0 29.497 19.668 49.165 49.165 49.165h122.918c14.75 0 24.582 9.833 24.582 24.583s-9.832 24.583-24.582 24.583h-24.582z m-24.584-589.996h344.164c14.75 0 24.582 9.833 24.582 24.583s-9.832 24.583-24.582 24.583H329.268c-14.75 0-24.583-9.833-24.583-24.583s9.833-24.583 24.583-24.583z m0 147.498h245.833c14.746 0 24.582 9.836 24.582 24.582 0 14.75-9.836 24.587-24.582 24.587H329.268c-14.75 0-24.583-9.837-24.583-24.587 0-14.747 9.833-24.582 24.583-24.582z m0 147.5h147.497c14.75 0 24.582 9.833 24.582 24.583s-9.832 24.583-24.582 24.583H329.268c-14.75 0-24.583-9.833-24.583-24.583s9.833-24.583 24.583-24.583z m265.497 240.914l236-235.996-34.42-34.419-235.995 236-4.919 39.332 39.334-4.917z m236.001-304.829l34.415 34.415c19.669 19.668 19.669 49.165 0 68.834l-236 236c-9.832 9.832-19.664 14.746-29.497 14.746l-68.834 4.918c-14.75 0-24.582-9.833-24.582-19.664v-4.919l4.918-68.834c0-9.832 4.914-19.664 14.746-29.497l236-235.999c19.667-19.67 49.164-19.67 68.834 0z" p-id="47393" fill="#cd4436"></path></svg>