<?xml version="1.0" standalone="no"?><!DOCTYPE svg PUBLIC "-//W3C//DTD SVG 1.1//EN" "http://www.w3.org/Graphics/SVG/1.1/DTD/svg11.dtd"><svg t="1586918896959" class="icon" viewBox="0 0 1024 1024" version="1.1" xmlns="http://www.w3.org/2000/svg" p-id="52493" xmlns:xlink="http://www.w3.org/1999/xlink" width="30" height="30"><defs><style type="text/css"></style></defs><path d="M161.822039 413.954987c54.146373 0 98.050054 43.901883 98.050054 98.046037s-43.902658 98.046037-98.050054 98.046037c-54.146373 0-98.050054-43.901883-98.050054-98.046037S107.67669 413.954987 161.822039 413.954987z" p-id="52494" fill="#e49238"></path><path d="M511.999488 413.954987c54.146373 0 98.050054 43.901883 98.050054 98.046037s-43.902658 98.046037-98.050054 98.046037c-54.146373 0-98.050054-43.901883-98.050054-98.046037S457.853116 413.954987 511.999488 413.954987z" p-id="52495" fill="#e49238"></path><path d="M862.175914 413.954987c54.146373 0 98.050054 43.901883 98.050054 98.046037s-43.902658 98.046037-98.050054 98.046037c-54.145349 0-98.050054-43.901883-98.050054-98.046037S808.030565 413.954987 862.175914 413.954987z" p-id="52496" fill="#e49238"></path></svg>