<?xml version="1.0" standalone="no"?><!DOCTYPE svg PUBLIC "-//W3C//DTD SVG 1.1//EN" "http://www.w3.org/Graphics/SVG/1.1/DTD/svg11.dtd"><svg t="1586918093211" class="icon" viewBox="0 0 1024 1024" version="1.1" xmlns="http://www.w3.org/2000/svg" p-id="24393" xmlns:xlink="http://www.w3.org/1999/xlink" width="30" height="30"><defs><style type="text/css"></style></defs><path d="M902.095 902.095h-780.19c-53.858 0-97.524-43.666-97.524-97.524V219.43c0-53.858 43.666-97.524 97.524-97.524H755.81c53.857 0 97.523 43.666 97.523 97.524v48.761h48.762c53.858 0 97.524 43.667 97.524 97.524v438.857c0 53.858-43.666 97.524-97.524 97.524z m-97.524-97.524V219.43c0-26.941-21.82-48.762-48.761-48.762H121.905c-26.941 0-48.762 21.82-48.762 48.762v585.14c0 26.941 21.82 48.762 48.762 48.762h696.198c-8.387-14.384-13.532-30.915-13.532-48.762z m146.286-438.857c0-26.94-21.82-48.762-48.762-48.762h-48.762v487.619c0 26.941 21.821 48.762 48.762 48.762s48.762-21.82 48.762-48.762V365.714z m-731.428-24.38h146.285V536.38H170.667V341.333h48.762z m0 146.285h97.523v-97.524H219.43v97.524z m487.619 195.048H170.667v-48.762h536.38v48.762zM414.476 487.619h292.572v48.762H414.476v-48.762z m0-146.286h292.572v48.762H414.476v-48.762z" fill="#3a56ac" p-id="24394"></path></svg>