<?xml version="1.0" standalone="no"?><!DOCTYPE svg PUBLIC "-//W3C//DTD SVG 1.1//EN" "http://www.w3.org/Graphics/SVG/1.1/DTD/svg11.dtd"><svg t="1586915053624" class="icon" viewBox="0 0 1024 1024" version="1.1" xmlns="http://www.w3.org/2000/svg" p-id="8255" xmlns:xlink="http://www.w3.org/1999/xlink" width="25" height="25"><defs><style type="text/css"></style></defs><path d="M593.454545 961.163636h-30.254545L256 744.727273a39.563636 39.563636 0 0 0-23.272727-2.327273H132.654545c-58.181818 0-109.381818-62.836364-109.381818-116.363636v-232.727273c0-58.181818 55.854545-93.090909 109.381818-93.090909h93.09091a65.163636 65.163636 0 0 0 30.254545-13.963637l307.2-221.090909h4.654545a104.727273 104.727273 0 0 1 90.763637 18.618182A104.727273 104.727273 0 0 1 698.181818 167.563636v688.872728a104.727273 104.727273 0 0 1-104.727273 104.727272z m-9.30909-46.545454a58.181818 58.181818 0 0 0 69.818181-58.181818V167.563636a58.181818 58.181818 0 0 0-23.272727-46.545454 58.181818 58.181818 0 0 0-46.545454-11.636364l-302.545455 216.436364a102.4 102.4 0 0 1-58.181818 23.272727h-93.090909c-30.254545 0-62.836364 16.290909-62.836364 46.545455v232.727272c0 32.581818 32.581818 69.818182 62.836364 69.818182H232.727273a76.8 76.8 0 0 1 51.2 11.636364zM889.018182 761.018182l-32.581818-32.581818c130.327273-130.327273 130.327273-304.872727 0-435.2l32.581818-32.581819c148.945455 148.945455 148.945455 351.418182 0 500.363637z" fill="#1296db" p-id="8256"></path><path d="M828.509091 644.654545l-32.581818-32.581818a132.654545 132.654545 0 0 0 0-200.145454l32.581818-32.581818a179.2 179.2 0 0 1 0 265.30909z" fill="#1296db" p-id="8257"></path></svg>