<?xml version="1.0" standalone="no"?><!DOCTYPE svg PUBLIC "-//W3C//DTD SVG 1.1//EN" "http://www.w3.org/Graphics/SVG/1.1/DTD/svg11.dtd"><svg t="1586918420256" class="icon" viewBox="0 0 1024 1024" version="1.1" xmlns="http://www.w3.org/2000/svg" p-id="36746" xmlns:xlink="http://www.w3.org/1999/xlink" width="30" height="30"><defs><style type="text/css"></style></defs><path d="M764.416 776.746667l-24.021333 23.936a21.333333 21.333333 0 1 1-30.122667-30.165334l60.416-60.288a21.333333 21.333333 0 0 1 30.122667 0l60.416 60.288a21.333333 21.333333 0 1 1-30.122667 30.165334l-24.021333-23.936V896a21.333333 21.333333 0 1 1-42.666667 0v-119.253333zM655.701333 870.4a25.6 25.6 0 1 1 0 51.2H256A68.266667 68.266667 0 0 1 187.733333 853.333333V256A110.933333 110.933333 0 0 1 298.666667 145.066667h426.666666A110.933333 110.933333 0 0 1 836.266667 256v356.48a25.6 25.6 0 0 1-51.2 0V256A59.733333 59.733333 0 0 0 725.333333 196.266667H298.666667A59.733333 59.733333 0 0 0 238.933333 256v597.333333c0 9.386667 7.68 17.066667 17.066667 17.066667h399.701333zM362.666667 430.933333a25.6 25.6 0 1 1 0-51.2h256a25.6 25.6 0 0 1 0 51.2h-256z m0 128a25.6 25.6 0 0 1 0-51.2h256a25.6 25.6 0 0 1 0 51.2h-256z m0 128a25.6 25.6 0 0 1 0-51.2h256a25.6 25.6 0 0 1 0 51.2h-256z" fill="#0055a7" p-id="36747"></path></svg>