<?xml version="1.0" standalone="no"?><!DOCTYPE svg PUBLIC "-//W3C//DTD SVG 1.1//EN" "http://www.w3.org/Graphics/SVG/1.1/DTD/svg11.dtd"><svg t="1586919884388" class="icon" viewBox="0 0 1024 1024" version="1.1" xmlns="http://www.w3.org/2000/svg" p-id="62086" data-spm-anchor-id="a313x.7781069.0.i35" xmlns:xlink="http://www.w3.org/1999/xlink" zoom="2" width="30" height="30"><defs><style type="text/css"></style></defs><path d="M599.552 739.84c-113.664 38.912-236.544-20.992-275.456-134.656S345.088 368.64 458.752 329.728s237.056 20.992 275.968 134.656c38.4 113.152-22.016 237.568-135.168 275.456zM462.336 339.456c-107.52 36.864-165.376 154.624-128.512 262.144s154.624 165.376 262.144 128.512c108.544-36.864 166.4-154.624 128.512-262.144-36.864-108.032-154.624-165.376-262.144-128.512z" fill="#bfbfbf" p-id="62087" data-spm-anchor-id="a313x.7781069.0.i32" class=""></path><path d="M545.792 721.92c-1.536 0-3.072-0.512-3.072-2.048s0.512-3.072 2.048-3.072c14.336-1.536 28.672-4.096 42.496-9.216 1.536-0.512 3.072 0 3.584 1.536s0 3.072-1.536 3.584h-0.512c-13.312 4.096-27.648 7.68-43.008 9.216z m-44.544-1.536c-15.36-3.072-29.696-6.656-44.032-12.288-1.536-0.512-2.048-2.048-1.536-3.584s2.048-2.048 3.584-1.536c13.824 5.632 27.648 9.216 41.984 11.776 1.536 0 2.048 1.536 2.048 3.072 1.024 1.024-0.512 2.56-2.048 2.56z m128.512-28.16c-0.512 0-1.536-0.512-2.048-1.536-0.512-1.536-0.512-3.072 0.512-3.584 12.288-8.192 24.064-17.408 33.28-28.16 0.512-1.536 3.072-1.536 3.584 0 1.536 0.512 1.536 3.072 0 3.584-10.24 10.752-21.504 20.992-34.816 28.672 0.512 1.024-0.512 1.024-0.512 1.024z m-210.432-5.632c-0.512 0-1.536 0-1.536-0.512-12.288-8.704-23.04-19.456-32.768-31.232-0.512-1.536-0.512-3.072 0-3.584 1.536-0.512 3.072-0.512 3.584 0 9.216 11.776 20.48 21.504 31.744 30.208 1.536 0.512 1.536 3.072 0.512 3.584 1.024 0.512 0 1.536-1.536 1.536z m270.336-58.368h-1.536c-1.536-0.512-1.536-2.048-0.512-3.584 7.168-12.8 12.8-26.112 16.384-40.448 0.512-1.536 2.048-2.048 3.584-2.048 1.536 0.512 2.048 2.048 2.048 3.584-4.096 14.336-10.24 28.16-17.408 41.984 0 0.512-1.536 0.512-2.56 0.512z m-326.656-9.728c-0.512 0-2.048-0.512-2.048-1.536-3.584-6.656-6.656-13.824-8.704-20.992s-4.096-14.336-5.632-21.504c0-1.536 0.512-3.072 2.048-3.072s3.072 0.512 3.072 2.048c1.536 7.168 3.584 13.824 5.632 20.992s5.12 13.824 8.704 20.48c0.512 1.536 0 3.072-1.536 3.584h-1.536z m350.72-75.264c-1.536 0-3.072-1.536-3.072-3.072v-5.12c0-12.8-1.536-26.112-4.096-38.4 0-1.536 0.512-3.072 2.048-3.072s3.072 0.512 3.072 2.048c3.072 12.8 4.096 26.112 4.096 38.912v5.632c0 2.048-0.512 3.072-2.048 3.072z m-368.64-10.752c-1.536 0-3.072-1.536-3.072-3.072 0.512-15.36 3.072-30.208 6.656-45.056 0.512-1.536 2.048-2.048 3.584-2.048 1.536 0.512 2.048 2.048 2.048 3.584-3.584 14.336-6.656 28.672-6.656 43.52 0.512 1.536-1.024 3.072-2.56 3.072z m349.696-75.264c-0.512 0-2.048-0.512-2.048-1.536-6.656-12.8-14.336-25.088-24.064-36.864-0.512-1.536-0.512-3.072 0-3.584s3.072-0.512 3.584 0c9.216 11.776 17.92 24.576 24.576 37.376 0.512 1.536 0 3.072-1.536 3.584 0.512 0.512 0.512 1.024-0.512 1.024z m-325.632-9.728h-1.536c-1.536-0.512-1.536-2.048-0.512-3.584 7.168-12.8 16.384-25.088 26.624-36.352 0.512-1.536 3.072-1.536 3.584 0 1.536 0.512 1.536 3.072 0 3.584-10.24 10.752-18.944 22.528-26.112 35.328-1.024 0-1.536 1.024-2.048 1.024z m269.312-57.856c-0.512 0-1.536 0-1.536-0.512-11.776-8.704-24.576-15.872-38.4-21.504-1.536-0.512-2.048-2.048-1.536-3.584s2.048-2.048 3.584-1.536c13.824 5.632 27.648 12.8 38.912 22.528 1.536 0.512 1.536 3.072 0.512 3.584s-1.024 1.024-1.536 1.024z m-209.408-6.656c-0.512 0-1.536-0.512-2.048-1.536-0.512-1.536-0.512-3.072 0.512-3.584 12.288-8.192 26.112-14.336 40.448-19.456 1.536-0.512 3.072 0 3.584 1.536s0 3.072-1.536 3.584c-13.824 5.12-27.648 11.776-39.936 19.456h-1.024z m128-27.648c-9.216-1.536-18.944-2.048-27.648-2.048-5.632 0-10.752 0-16.384 0.512-1.536 0-3.072-0.512-3.072-2.048s0.512-3.072 2.048-3.072c5.632-0.512 11.776-0.512 17.408-0.512 9.216 0 18.944 0.512 28.16 2.048 1.536 0 2.048 1.536 2.048 3.072s-1.536 2.048-2.56 2.048z" fill="#dbdbdb" p-id="62088"></path><path d="M288.768 685.568l10.24-67.584-50.176-47.104 526.336-180.736-20.48 65.024 59.392 50.176z" fill="#bfbfbf" p-id="62089" data-spm-anchor-id="a313x.7781069.0.i31" class="selected"></path><path d="M441.856 578.048l-38.912 12.8c-2.048 0.512-3.072 2.048-2.048 5.12l1.536 4.096 45.568-15.872-1.536-4.096c0-2.56-1.536-3.584-4.608-2.048zM655.36 491.52l16.384-5.632 3.072 8.192-16.384 5.632-3.072-8.192z m13.312-13.824c-0.512-2.048-2.048-3.584-5.12-2.048l-12.8 4.096 3.072 8.192 16.384-5.632-1.536-4.608z m-35.84 12.288l1.536 5.12 16.384-5.632-3.072-8.192-12.8 4.096c-2.048 1.024-3.072 2.56-2.048 4.608z m2.56 8.192l16.384-5.632 3.072 8.192-16.384 5.632-3.072-8.192z m-230.4 109.568c0.512 3.072 2.048 3.584 5.12 2.048l38.912-12.8c3.072-0.512 3.584-2.048 2.048-5.12l-1.536-4.096-45.568 15.872c0.512 0 1.024 4.096 1.024 4.096z" fill="#8a8a8a" p-id="62090" data-spm-anchor-id="a313x.7781069.0.i37" class=""></path><path d="M775.168 390.144L248.832 570.88l49.664 47.104-10.24 68.096L814.08 505.344 754.688 455.68c0-0.512 20.48-65.536 20.48-65.536z m-154.112 78.848l36.352-12.288c3.584 0 5.12 0.512 4.096 3.072-1.536 3.072-5.632 7.168-13.824 13.824 2.048 0.512 2.048 1.536 1.536 3.072l14.336-5.12c4.096-1.536 7.168 0 8.192 4.096l10.24 29.696c2.048 5.632-3.072 8.704-15.36 9.216-1.536-1.536-1.536-2.048 0-3.584 9.216 0 13.824-1.536 11.776-5.12l-3.072-8.192-15.872 5.12 4.096 12.8c-0.512 2.048-1.536 3.072-3.584 1.536l-4.096-12.8-16.384 5.632 4.096 12.8c-0.512 2.048-2.048 2.048-3.584 1.536l-11.776-33.28c-1.536-4.096 0-7.168 3.584-8.704l15.36-5.12c-5.12-0.512-10.752-1.536-18.944-2.048-1.536-1.536-1.536-3.072 0.512-3.584 5.632 0 10.752 0.512 14.336 0.512 10.24-8.192 12.8-11.776 10.24-10.752l-32.768 10.752s0-1.536 0.512-3.072z m-14.848 3.584c4.096 3.072 8.704 6.656 12.8 11.776 0.512 2.048 0 3.072-2.048 3.584-5.12-5.12-9.216-9.216-12.8-11.776-0.512-3.072 0.512-3.584 2.048-3.584z m-222.72 107.52c6.656-2.048 11.776-4.096 16.384-7.168l-2.048-6.656-11.776 4.096c-3.072 1.536-3.584 0-3.072-3.584l2.048-10.752-8.704 3.072c-2.048-0.512-3.072-1.536-1.536-3.584l10.24-3.584v-5.12c0.512-2.048 2.048-2.048 3.584-0.512v5.12l17.92-6.656c2.048 0.512 2.048 2.048 1.536 3.584l-19.456 6.656-2.048 11.776 9.216-3.072-1.536-5.632c0.512-2.048 1.536-3.072 3.584-1.536l2.048 5.632 10.24-3.584c2.048 0.512 3.072 1.536 1.536 3.584l-10.24 3.584 2.048 6.656 10.24-5.12c2.048 0 2.048 1.536 1.536 3.584-3.072 1.536-6.656 3.072-10.752 5.12l2.048 6.656c-0.512 2.048-2.048 2.048-3.584 1.536l-2.048-6.656c-3.584 1.536-9.216 4.096-16.384 7.168-2.048-1.536-2.56-3.072-1.024-4.608z m71.68 11.776c2.048 4.096 0.512 6.656-3.584 8.192L409.6 614.4c-3.584 1.536-5.632 0-7.168-4.096l-5.12-14.336c-0.512-4.096 0-6.656 3.584-8.192l40.96-14.336c4.096-1.536 7.168 0 8.192 3.584l5.12 14.848z m-8.704-45.056l-8.704 3.072 6.656 18.944c-0.512 2.048-2.048 2.048-3.584 1.536l-6.656-18.944-12.8 4.096c3.072 8.704 3.584 15.872 1.536 20.992-1.536 1.536-3.072 0.512-3.584-1.536 2.048-5.12 1.536-12.288-2.048-21.504l-2.048-6.656c-1.536-3.584 0-6.656 3.072-8.192 9.216-4.096 15.36-7.168 17.92-9.216 2.048 0 3.072 0.512 2.048 3.072-2.048 2.048-8.704 5.12-17.408 9.216-2.048 0.512-2.048 3.072-1.536 4.096l2.048 5.12 25.088-8.704c0.512 2.048 1.024 2.56 0 4.608z m90.112 18.432c-14.336-0.512-27.648-5.632-39.936-15.36l10.752 30.208c-0.512 2.048-2.048 2.048-3.584 1.536l-10.24-29.696c-5.632 15.872-12.8 27.648-22.528 35.328-2.048 0.512-3.072 0-3.072-2.048 11.776-10.24 18.944-23.04 22.528-37.376l-30.208 10.752c-2.048-0.512-3.072-1.536-1.536-3.584l31.744-10.752-5.12-15.36-26.624 9.216c-2.048-0.512-2.048-2.048-1.536-3.584l26.624-9.216-3.584-10.752c0.512-2.048 1.536-3.072 3.584-1.536l3.584 10.752 28.16-9.216c2.048 0.512 2.048 2.048 1.536 3.584l-28.672 9.216 5.12 15.36 30.208-10.752c2.048 0.512 2.048 2.048 1.536 3.584l-28.672 10.24c12.8 9.216 26.112 14.336 39.936 15.36 2.048 2.048 2.048 2.56 0 4.096z m65.536-57.344l-16.384 5.12 11.776 34.816c-0.512 2.048-2.048 2.048-3.584 1.536l-11.776-34.816-28.16 9.216c5.632 16.384 6.656 29.696 1.536 39.936-2.048 1.536-3.584 0.512-3.072-1.536 4.096-10.752 3.584-23.04-2.048-36.864l-16.384 5.632c-2.048-0.512-2.048-2.048-1.536-3.584l16.384-5.632-8.192-23.04-10.752 3.584c-2.048-0.512-2.048-2.048-1.536-3.584l57.856-19.456c2.048 0.512 2.048 2.048 1.536 3.584l-11.776 4.096 8.192 23.04 16.384-5.632c2.56 1.024 3.072 1.536 1.536 3.584z m86.016 10.752l-35.328 12.288c-5.632 2.048-12.8 1.536-20.992-3.584-1.536 5.12-3.584 9.216-6.656 12.288-2.048 1.536-3.584 0.512-3.584-2.048 3.584-3.584 5.632-8.192 6.656-12.288l-8.192-22.528c-0.512-2.048-2.048-3.584-5.12-2.048l-7.168 2.048c-2.048-0.512-2.048-2.048-1.536-3.584l8.704-3.072c3.584-1.536 6.656 0 7.168 4.096l8.192 22.528c8.192 5.632 14.336 7.168 20.992 4.096l33.792-11.776c4.096 1.024 4.608 2.56 3.072 3.584z" fill="#8a8a8a" p-id="62091" data-spm-anchor-id="a313x.7781069.0.i30" class=""></path><path d="M544.768 497.664l28.16-9.728 8.192 23.04-28.16 9.728-8.192-23.04z" fill="#8a8a8a" p-id="62092" data-spm-anchor-id="a313x.7781069.0.i38" class=""></path></svg>